<?xml version="1.0" standalone="no"?>
<!DOCTYPE svg PUBLIC "-//W3C//DTD SVG 20010904//EN"
 "http://www.w3.org/TR/2001/REC-SVG-20010904/DTD/svg10.dtd">
<svg version="1.0" xmlns="http://www.w3.org/2000/svg"
 width="1023.000000pt" height="1023.000000pt" viewBox="0 0 1023.000000 1023.000000"
 preserveAspectRatio="xMidYMid meet">
<metadata>
Created by potrace 1.14, written by Peter Selinger 2001-2017
</metadata>
<g transform="translate(0.000000,1023.000000) scale(0.100000,-0.100000)"
fill="#000000" stroke="none">
<path d="M4840 10217 c-3 -2 -54 -8 -115 -11 -60 -4 -192 -18 -293 -32 -1101
-148 -2135 -660 -2921 -1445 -760 -759 -1244 -1696 -1432 -2769 -58 -329 -73
-543 -66 -947 7 -397 35 -650 112 -1008 153 -709 487 -1429 929 -2005 321
-418 728 -807 1151 -1102 613 -427 1373 -732 2111 -847 281 -44 316 -46 809
-46 493 0 528 2 809 46 660 103 1351 363 1916 719 673 424 1248 1010 1654
1684 395 655 640 1390 716 2145 13 134 13 878 0 1012 -105 1046 -531 2040
-1215 2834 -724 840 -1713 1429 -2800 1664 -133 29 -348 65 -445 75 -25 3 -70
7 -100 11 -30 3 -75 8 -100 11 -65 7 -714 17 -720 11z"/>
</g>
</svg>
